/* XPM */
static char *waves_bump[] = {
"16 16 6 1",
"0 c #000000",
"1 c #333333",
"2 c #666666",
"3 c #999999",
"4 c #CCCCCC",
"5 c #FFFFFF",
"0123454321012345",
"1234543210123454",
"2345432101234543",
"3454321012345432",
"4543210123454321",
"5432101234543210",
"4321012345432101",
"3210123454321012",
"2101234543210123",
"1012345432101234",
"0123454321012345",
"1234543210123454",
"2345432101234543",
"3454321012345432",
"4543210123454321",
"5432101234543210"
};
